<svg xmlns="http://www.w3.org/2000/svg" viewBox="0 0 64 64" fill="none">
  <defs>
    <linearGradient id="bg" x1="10" y1="8" x2="54" y2="56" gradientUnits="userSpaceOnUse">
      <stop stop-color="#0f172a" />
      <stop offset="1" stop-color="#16213b" />
    </linearGradient>
    <linearGradient id="accent" x1="20" y1="16" x2="46" y2="48" gradientUnits="userSpaceOnUse">
      <stop stop-color="#67e8f9" />
      <stop offset="1" stop-color="#06b6d4" />
    </linearGradient>
  </defs>

  <rect x="2" y="2" width="60" height="60" rx="19" fill="url(#bg)" />
  <rect x="2.75" y="2.75" width="58.5" height="58.5" rx="18.25" stroke="#22d3ee" stroke-opacity=".18" stroke-width="1.5" />

  <path
    d="M18 11.5h18.5L48 22.1V50a5.5 5.5 0 0 1-5.5 5.5h-19A5.5 5.5 0 0 1 18 50Z"
    fill="#f8fafc"
  />
  <path d="M36.5 11.5V20a2.4 2.4 0 0 0 2.4 2.4H48z" fill="url(#accent)" />

  <rect x="25" y="29.5" width="15.5" height="3.6" rx="1.8" fill="#0f172a" opacity=".92" />
  <rect x="25" y="36.5" width="18.5" height="3.6" rx="1.8" fill="#0f172a" opacity=".78" />
  <rect x="25" y="43.5" width="13.5" height="3.6" rx="1.8" fill="#0f172a" opacity=".58" />

  <path
    d="m50 12.5 1.9 4.6 4.6 1.9-4.6 1.9-1.9 4.6-1.9-4.6-4.6-1.9 4.6-1.9z"
    fill="url(#accent)"
  />
</svg>
